<svg xmlns="http://www.w3.org/2000/svg" viewBox="0 0 72 72"><g><circle cx="36" cy="36" r="36" fill="#25d366"/><path d="M36 18.5c-9.7 0-17.5 7.8-17.5 17.5 0 3.1.8 6.1 2.3 8.7l-2.5 9.1 9.3-2.4c2.5 1.3 5.3 2 8.4 2 9.7 0 17.5-7.8 17.5-17.5S45.7 18.5 36 18.5zm0 31.5c-2.7 0-5.2-.7-7.4-2l-.5-.3-5.5 1.4 1.5-5.3-.3-.5c-1.4-2.2-2.2-4.7-2.2-7.3 0-7.7 6.3-14 14-14s14 6.3 14 14-6.3 14-14 14zm7.7-10.2c-.4-.2-2.3-1.1-2.6-1.2-.3-.1-.5-.2-.7.2-.2.3-.8 1.2-1 1.4-.2.2-.4.3-.7.1-.4-.2-1.5-.6-2.8-1.7-1-1-1.7-2.1-1.9-2.5-.2-.4 0-.6.2-.8.2-.2.4-.5.6-.7.2-.2.3-.4.5-.7.2-.3.1-.5 0-.7-.1-.2-.7-1.7-1-2.3-.3-.6-.6-.5-.8-.5-.2 0-.4 0-.6 0-.2 0-.5.1-.7.3-.2.2-.9.9-.9 2.1s.9 2.4 1 2.6c.1.2 1.7 2.7 4.1 3.7.6.3 1.1.5 1.5.6.6.2 1.1.2 1.5.1.5-.1 1.5-.6 1.7-1.2.2-.6.2-1.1.1-1.2-.1-.1-.4-.2-.8-.4z" fill="#fff"/></g></svg>
