<svg xmlns="http://www.w3.org/2000/svg" viewBox="0 0 72 72"><g><circle cx="36" cy="36" r="36" fill="#5865f2"/><path d="M48.1 28.2c-2.2-1-4.5-1.7-6.8-2.1-.3.5-.6 1.1-.8 1.6-2.4-.4-4.8-.4-7.2 0-.2-.5-.5-1.1-.8-1.6-2.3.4-4.6 1.1-6.8 2.1-4.3 6.2-5.5 12.2-4.9 18.1 2.8 2.1 5.7 3.6 8.7 4.5.7-.9 1.3-1.8 1.8-2.7-1.1-.3-2.1-.7-3.1-1.2.3-.2.6-.4.9-.6 5.7 2.6 11.8 2.6 17.5 0 .3.2.6.4.9.6-1 .5-2 .9-3.1 1.2.5.9 1.1 1.8 1.8 2.7 3-.9 5.9-2.4 8.7-4.5.6-5.9-.6-11.9-4.9-18.1zm-17.1 11.7c-1.1 0-2-.9-2-2s.9-2 2-2 2 .9 2 2-.9 2-2 2zm10 0c-1.1 0-2-.9-2-2s.9-2 2-2 2 .9 2 2-.9 2-2 2z" fill="#fff"/></g></svg>
