<svg xmlns="http://www.w3.org/2000/svg" viewBox="0 0 72 72"><g><circle cx="36" cy="36" r="36" fill="#1da1f2"/><path d="M56.1 27.2c.02.28.02.56.02.84 0 8.6-6.55 18.5-18.5 18.5-3.67 0-7.09-1.08-9.97-2.94.51.06 1.02.09 1.55.09 3.05 0 5.85-1.04 8.08-2.8-2.85-.05-5.26-1.94-6.09-4.53.4.08.81.12 1.24.12.6 0 1.18-.08 1.73-.23-2.98-.6-5.23-3.23-5.23-6.39v-.08c.88.49 1.89.79 2.96.82-1.76-1.18-2.92-3.19-2.92-5.47 0-1.2.32-2.33.88-3.3 3.2 3.93 7.99 6.51 13.39 6.78-.11-.48-.17-.98-.17-1.5 0-3.62 2.94-6.56 6.56-6.56 1.89 0 3.6.8 4.8 2.09 1.5-.3 2.91-.84 4.18-1.6-.49 1.53-1.53 2.81-2.89 3.62 1.33-.16 2.6-.51 3.78-1.04-.88 1.32-2 2.48-3.28 3.41z" fill="#fff"/></g></svg>
